<svg xmlns="http://www.w3.org/2000/svg" viewBox="0 0 276 343">
    <g transform="translate(-474 -224)">
        <path 
            d="M669 335.8l-25.8 40.7c15.3 11.5 30.7 22.1 44.9 34.1 20.1 17 36.5 37.1 45.1 62.5 7.7 22.9 6 46-.4 68.9-3.2 11.4-9.3 15.6-19.1 15.8-3 .1-4.1-1.1-4.6-3.8-1-6.2-1.9-12.5-3.6-18.6-4.9-18.3-15.4-33-30-44.9L537.8 378.6c-2.2-1.8-4.5-3.5-6.6-5.1-19.2 11.5-25.9 32-15.7 51.5 5.3 10.2 12.7 19.5 19.9 28.5 8.9 11.2 19 21.5 28 32.5 7.3 8.9 13.2 18.8 15.9 30.2 3.7 15.3-1.3 27-15.2 34.3-8.2 4.3-16.7 7.5-26.6 7-15.3-.7-30.6-.2-46-.2h-5.9c1.5-4.9 3.1-8.1 8.6-8.6 8.4-.7 12.4-4.1 12.9-12.5s-.2-16.9-1.9-25.1c-4.7-21.6-10.2-43-15.6-64.5-3.5-14.1-1.2-27.4 4.7-40.3 6.4-13.9 15.4-26 25.1-37.7.8-1 1.7-2 2.4-3-23.8-13.4-33.7-35.1-37-60.6-2.1-16.4-2-32.7 6.1-47.8 3.1-5.5 6.7-10.7 10.8-15.5 2.1-2.4 4.7-4.3 7.5-5.6 6.1-3.1 8.3-1.9 8.8 4.9 1.3 17.8 8.6 33 19.8 46.5 25.1 30.1 55 54.6 87 76.9 1.3.8 2.5 1.6 3.9 2.2.6.2 1.3.4 2 .5l27.6-38.4c-14-9.4-26.6-19.9-37.1-32.7-10-12.2-10.8-25.3-2.8-38.4 4.3-7 10.3-13 16-18.9 2.2-2.3 5.6-3.7 8.7-4.8 7.5-2.6 9.3-1.2 8.8 6.7s1.8 14.7 7.3 20c5.1 5 10.6 9.6 16.4 13.7 9.6 6.6 20.1 11.9 29.5 18.8 8.1 5.9 15.5 12.6 22.1 20 11.1 12.7 13.3 27.6 7.6 43.5-5.5 15.6-15.9 27.2-30 35.4-6.8 4-8.3 3-10-4.5-2-8.9-3.6-18-6.2-26.7-2.7-10.6-9.9-19.6-19.6-25z"/><linearGradient id="prefix__a" gradientUnits="userSpaceOnUse" x1="483.834" y1="395.321" x2="738.32" y2="395.321"><stop offset="0" stop-color="#a16e39"/><stop offset="1" stop-color="#cf9b62"/></linearGradient><path d="M669 335.8l-25.8 40.7c15.3 11.5 30.7 22.1 44.9 34.1 20.1 17 36.5 37.1 45.1 62.5 7.7 22.9 6 46-.4 68.9-3.2 11.4-9.3 15.6-19.1 15.8-3 .1-4.1-1.1-4.6-3.8-1-6.2-1.9-12.5-3.6-18.6-4.9-18.3-15.4-33-30-44.9L537.8 378.6c-2.2-1.8-4.5-3.5-6.6-5.1-19.2 11.5-25.9 32-15.7 51.5 5.3 10.2 12.7 19.5 19.9 28.5 8.9 11.2 19 21.5 28 32.5 7.3 8.9 13.2 18.8 15.9 30.2 3.7 15.3-1.3 27-15.2 34.3-8.2 4.3-16.7 7.5-26.6 7-15.3-.7-30.6-.2-46-.2h-5.9c1.5-4.9 3.1-8.1 8.6-8.6 8.4-.7 12.4-4.1 12.9-12.5s-.2-16.9-1.9-25.1c-4.7-21.6-10.2-43-15.6-64.5-3.5-14.1-1.2-27.4 4.7-40.3 6.4-13.9 15.4-26 25.1-37.7.8-1 1.7-2 2.4-3-23.8-13.4-33.7-35.1-37-60.6-2.1-16.4-2-32.7 6.1-47.8 3.1-5.5 6.7-10.7 10.8-15.5 2.1-2.4 4.7-4.3 7.5-5.6 6.1-3.1 8.3-1.9 8.8 4.9 1.3 17.8 8.6 33 19.8 46.5 25.1 30.1 55 54.6 87 76.9 1.3.8 2.5 1.6 3.9 2.2.6.2 1.3.4 2 .5l27.6-38.4c-14-9.4-26.6-19.9-37.1-32.7-10-12.2-10.8-25.3-2.8-38.4 4.3-7 10.3-13 16-18.9 2.2-2.3 5.6-3.7 8.7-4.8 7.5-2.6 9.3-1.2 8.8 6.7s1.8 14.7 7.3 20c5.1 5 10.6 9.6 16.4 13.7 9.6 6.6 20.1 11.9 29.5 18.8 8.1 5.9 15.5 12.6 22.1 20 11.1 12.7 13.3 27.6 7.6 43.5-5.5 15.6-15.9 27.2-30 35.4-6.8 4-8.3 3-10-4.5-2-8.9-3.6-18-6.2-26.7-2.7-10.6-9.9-19.6-19.6-25z" 
            fill="url(#prefix__a)"
        />
    </g>
</svg>