<?xml version="1.0" standalone="no"?>
<!DOCTYPE svg PUBLIC "-//W3C//DTD SVG 20010904//EN"
 "http://www.w3.org/TR/2001/REC-SVG-20010904/DTD/svg10.dtd">
<svg version="1.0" xmlns="http://www.w3.org/2000/svg"
 width="686.000000pt" height="686.000000pt" viewBox="0 0 686.000000 686.000000"
 preserveAspectRatio="xMidYMid meet">
<metadata>
Created by potrace 1.14, written by Peter Selinger 2001-2017
</metadata>
<g transform="translate(0.000000,686.000000) scale(0.100000,-0.100000)"
fill="#000000" stroke="none">
<path d="M4080 6670 c-30 -9 -68 -23 -85 -30 -16 -7 -32 -14 -35 -14 -13 -2
-78 -54 -114 -92 -86 -89 -133 -141 -176 -194 -25 -30 -52 -62 -61 -72 -31
-35 -101 -168 -126 -240 -38 -106 -41 -255 -8 -357 48 -145 122 -249 325 -452
111 -112 239 -224 340 -299 18 -14 45 -34 59 -46 14 -11 54 -40 89 -63 34 -23
62 -44 62 -47 0 -4 -255 -363 -283 -399 -4 -5 -44 -59 -87 -120 -44 -60 -85
-118 -92 -127 -7 -10 -29 -40 -48 -68 -19 -27 -39 -50 -44 -50 -14 0 -99 42
-114 57 -8 7 -23 18 -35 25 -46 24 -526 383 -602 449 -11 10 -57 48 -103 84
-46 37 -97 79 -115 95 -150 132 -241 213 -291 260 -82 77 -312 307 -366 367
-145 160 -192 214 -262 306 -43 56 -83 107 -88 114 -6 7 -10 14 -10 17 0 3
-14 25 -31 50 -68 101 -170 347 -193 466 -3 14 -7 34 -9 45 -10 45 -17 93 -22
150 -13 134 -35 170 -96 162 -144 -19 -328 -210 -464 -482 -97 -193 -129 -347
-129 -610 0 -168 8 -264 35 -415 18 -103 20 -115 36 -175 8 -33 16 -64 17 -70
8 -36 42 -131 49 -136 5 -3 9 -9 9 -12 0 -38 86 -206 159 -312 29 -42 89 -114
133 -159 83 -85 205 -186 225 -186 6 0 11 -4 11 -9 0 -5 13 -14 30 -21 59 -24
57 -29 -57 -173 -60 -74 -117 -147 -128 -163 -11 -15 -25 -32 -30 -38 -6 -6
-22 -29 -35 -51 -13 -22 -26 -42 -30 -45 -7 -6 -61 -89 -76 -115 -26 -48 -40
-71 -53 -87 -8 -10 -10 -18 -5 -18 5 0 4 -4 -2 -8 -19 -12 -149 -298 -152
-332 0 -3 -6 -25 -13 -50 -6 -25 -13 -52 -15 -60 -16 -92 -19 -135 -18 -255 0
-149 4 -177 35 -295 11 -41 24 -93 29 -115 5 -22 11 -49 14 -60 3 -11 13 -49
21 -85 9 -36 18 -72 21 -80 14 -52 35 -138 39 -155 2 -11 9 -38 15 -60 5 -22
14 -58 19 -80 5 -22 19 -78 31 -125 11 -47 23 -94 25 -105 2 -11 4 -20 5 -20
1 0 3 -9 5 -20 1 -11 15 -72 30 -135 15 -63 28 -123 30 -133 3 -10 6 -26 9
-35 7 -22 15 -67 21 -117 3 -22 7 -51 10 -65 17 -87 23 -347 10 -420 -9 -47
-43 -112 -69 -130 -60 -43 -94 -54 -196 -65 -32 -3 -80 -27 -102 -51 -12 -14
-58 -106 -58 -117 0 -1 276 -2 613 -1 698 0 670 -2 870 91 137 64 195 102 268
175 107 109 152 235 145 404 -3 49 -7 98 -9 109 -3 11 -8 34 -12 50 -52 223
-195 464 -430 730 -15 17 -50 57 -78 89 -29 33 -73 82 -98 110 -26 28 -59 67
-75 86 -16 19 -36 42 -44 50 -9 8 -58 67 -109 130 -52 63 -98 117 -102 118 -5
2 -9 8 -9 13 0 8 -30 48 -108 144 -93 114 -241 370 -277 479 -92 273 -15 562
207 772 69 66 159 126 172 115 58 -43 102 -77 106 -81 3 -3 88 -73 190 -154
102 -82 190 -155 196 -162 6 -8 16 -14 22 -14 6 0 17 -8 24 -17 7 -10 38 -37
68 -60 30 -23 69 -54 85 -69 17 -14 46 -38 65 -53 19 -14 37 -28 40 -31 3 -3
64 -53 135 -110 72 -58 132 -107 135 -110 3 -3 41 -35 85 -70 44 -35 82 -67
85 -70 3 -3 30 -24 60 -47 30 -23 64 -50 75 -60 11 -10 90 -75 175 -143 85
-69 157 -127 160 -131 3 -3 37 -30 75 -61 39 -30 80 -64 92 -74 12 -11 36 -30
54 -44 18 -14 37 -29 43 -35 6 -5 34 -28 61 -50 28 -21 52 -42 55 -45 3 -3 25
-21 50 -40 25 -19 51 -40 58 -48 8 -7 30 -25 50 -40 21 -15 46 -35 57 -46 11
-10 36 -30 55 -44 19 -15 37 -29 40 -32 3 -3 50 -41 105 -85 55 -44 107 -87
115 -95 8 -9 33 -29 55 -45 22 -17 42 -32 45 -35 3 -3 55 -46 115 -95 124
-100 246 -219 324 -313 50 -61 151 -206 151 -216 0 -3 13 -27 28 -53 27 -46
102 -212 106 -236 2 -7 13 -45 25 -86 23 -74 28 -94 37 -141 2 -14 7 -36 9
-50 3 -14 8 -37 10 -52 3 -16 7 -40 11 -55 3 -16 6 -41 8 -58 5 -54 26 -102
50 -113 24 -10 101 -9 159 4 51 10 119 49 161 90 35 34 101 153 110 200 2 10
15 64 29 119 14 55 28 118 33 140 4 22 8 42 9 45 2 6 17 108 20 135 2 11 6 45
10 75 19 150 10 451 -19 600 -1 8 -6 33 -10 55 -4 22 -12 54 -16 70 -5 17 -16
57 -26 90 -36 129 -132 351 -214 494 -32 56 -168 262 -179 271 -3 3 -18 21
-32 40 -15 19 -37 46 -49 60 -12 14 -36 42 -53 64 -44 53 -239 249 -317 318
-95 83 -114 98 -220 183 -41 33 -79 63 -85 68 -37 31 -275 207 -279 207 -3 0
-14 8 -25 18 -10 9 -95 73 -189 142 -121 88 -170 129 -166 140 5 14 140 234
157 255 4 6 53 82 108 170 56 88 111 176 123 195 13 19 44 68 70 108 l47 72
27 -14 c54 -29 155 -115 207 -177 41 -49 125 -190 125 -210 0 -4 5 -20 12 -36
6 -15 12 -32 12 -38 1 -5 8 -30 16 -55 7 -25 14 -49 16 -55 18 -76 46 -194 50
-209 57 -276 70 -326 95 -353 34 -35 90 -18 216 65 31 20 63 42 71 47 72 47
207 176 271 260 17 22 35 45 41 52 5 7 10 14 10 17 0 3 13 24 29 48 24 36 73
134 111 223 17 41 41 132 54 205 13 71 14 238 2 289 -29 126 -83 246 -155 341
-56 74 -200 223 -280 290 -29 25 -60 51 -67 58 -7 7 -35 29 -61 49 -26 20 -50
39 -53 42 -3 3 -12 11 -21 16 -9 6 -43 29 -76 52 -80 56 -353 223 -364 223 -5
0 -9 5 -9 10 0 6 -5 10 -10 10 -22 0 -234 151 -330 234 -94 82 -211 209 -228
248 -30 64 -50 146 -52 208 -1 30 -2 85 -3 122 -3 101 -39 123 -147 88z"/>
</g>
</svg>
